# xmcd
#
# Track frame offsets:
#	150
#	15813
#	25541
#	41125
#	55260
#	68521
#	87971
#	95698
#	113483
#	128182
#	134670
#	155590
#	177429
#	192746
#	215515
#	229861
#	250120
#	261737
#	281855
#	289172
#
# Disc length: 4041 seconds
#
# Revision: 0
# Processed by: cddbd v1.5.1PL0 Copyright (c) Steve Scherf et al.
# Submitted via: dBpowerAMP V4.0
#
DISCID=2b0fc714
DTITLE=Brincadeira - Brincadeira
DYEAR=2004
DGENRE=Folklore
TTITLE0=Muiñeira e Xota de Oins
TTITLE1=Xota de Barrán
TTITLE2=Foliada d Campelo
TTITLE3=Muiñeiras de Pedrouso
TTITLE4=Pateado de Santiago
TTITLE5=Polka "A Farruquiña"
TTITLE6=Muiñeira de Teaio
TTITLE7=Pasodobre e xota portuguesa de Bembibre
TTITLE8=Foliada
TTITLE9=Muiñeira da Fonsagrada
TTITLE10=Ruada de Folgoso
TTITLE11=Muiñeira e xota de Gondar
TTITLE12=Danza das Cortellas
TTITLE13=Muiñeira e xota de Boado
TTITLE14=Muiñeira e xota de Mangüeiro
TTITLE15=Canto e muiñeira de Cabaleiros e Maneo de Viladabade
TTITLE16=Pasodobre corrido da Ribeira
TTITLE17=Xota e pasodobre de Rubiós
TTITLE18=Muiñeira de Vilamaior
TTITLE19=Rumba da Lata
EXTD=
EXTT0=
EXTT1=
EXTT2=
EXTT3=
EXTT4=
EXTT5=
EXTT6=
EXTT7=
EXTT8=
EXTT9=
EXTT10=
EXTT11=
EXTT12=
EXTT13=
EXTT14=
EXTT15=
EXTT16=
EXTT17=
EXTT18=
EXTT19=
PLAYORDER=
